<svg width="33" height="33" viewBox="0 0 33 33" fill="none" xmlns="http://www.w3.org/2000/svg">
<path d="M31.0779 0.0766602H1.88631C0.886759 0.077261 0.0764599 0.88796 0.0766602 1.88792V31.0795C0.077261 32.0791 0.88796 32.8894 1.88792 32.8892H17.6044V20.2H13.3427V15.2332H17.6044V11.5781C17.6044 7.33931 20.1921 5.03218 23.9733 5.03218C25.7843 5.03218 27.3406 5.16716 27.7943 5.22745V9.65765H25.1869C23.1297 9.65765 22.7314 10.6352 22.7314 12.0699V15.2332H27.6501L27.0092 20.2H22.7314V32.8892H31.0779C32.0781 32.8894 32.889 32.0789 32.8892 31.0787C32.8892 31.0785 32.8892 31.0783 32.8892 31.0779V1.88631C32.8888 0.886759 32.0779 0.0764599 31.0779 0.0766602Z" fill="white"/>
</svg>
