<svg width="35" height="29" viewBox="0 0 35 29" fill="none" xmlns="http://www.w3.org/2000/svg">
<path d="M31.4038 7.37313C32.8271 6.3625 34.0244 5.10104 35 3.64854V3.64708C33.6977 4.21729 32.3123 4.59646 30.8656 4.78021C32.3531 3.89208 33.4892 2.49646 34.0229 0.815C32.636 1.64187 31.1048 2.22521 29.4729 2.55187C28.156 1.14896 26.2792 0.28125 24.2317 0.28125C20.2592 0.28125 17.061 3.50563 17.061 7.45771C17.061 8.02646 17.1092 8.57333 17.2273 9.09396C11.2627 8.80229 5.98354 5.94396 2.43688 1.58792C1.81854 2.66271 1.45396 3.89208 1.45396 5.21479C1.45396 7.69979 2.73292 9.90188 4.64188 11.1779C3.48833 11.156 2.35812 10.8206 1.4 10.2942V10.3729C1.4 13.8598 3.88646 16.756 7.14875 17.424C6.56396 17.5844 5.92813 17.6602 5.2675 17.6602C4.80813 17.6602 4.34438 17.634 3.90979 17.5377C4.83875 20.3785 7.47833 22.4683 10.6138 22.5369C8.1725 24.4458 5.07208 25.5965 1.71646 25.5965C1.12875 25.5965 0.564375 25.5702 0 25.4988C3.17917 27.5477 6.94458 28.7188 11.0075 28.7188C23.6702 28.7188 31.9229 18.1546 31.4038 7.37313Z" fill="white"/>
</svg>
