<svg width="35" height="25" viewBox="0 0 35 25" fill="none" xmlns="http://www.w3.org/2000/svg">
<path d="M34.2256 3.64632L34.2693 3.93215C33.8464 2.43152 32.7045 1.27361 31.2535 0.852149L31.2229 0.844857C28.4943 0.104024 17.5145 0.104024 17.5145 0.104024C17.5145 0.104024 6.56244 0.0894406 3.80619 0.844857C2.32744 1.27361 1.18411 2.43152 0.768483 3.90152L0.761191 3.93215C-0.258184 9.25652 -0.265476 15.6542 0.806399 21.3549L0.761191 21.0661C1.18411 22.5667 2.32598 23.7246 3.77702 24.1461L3.80765 24.1534C6.53327 24.8957 17.516 24.8957 17.516 24.8957C17.516 24.8957 28.4666 24.8957 31.2243 24.1534C32.7045 23.7246 33.8479 22.5667 34.2635 21.0967L34.2708 21.0661C34.7345 18.5899 34.9999 15.7403 34.9999 12.8294C34.9999 12.723 34.9999 12.6151 34.9985 12.5071C34.9999 12.408 34.9999 12.2899 34.9999 12.1717C34.9999 9.25944 34.7345 6.40986 34.2256 3.64632ZM14.0116 17.8242V7.18861L23.1495 12.5144L14.0116 17.8242Z" fill="white"/>
</svg>
